<svg width="25" height="25" xmlns="http://www.w3.org/2000/svg">

 <g>
  <title>Layer 1</title>
  <g id="svg_1" data-name="Layer 8">
   <path fill="#ffffff" id="svg_2" d="m23,4l0,17.1a2,2 0 0 1 -2,1.9l-11.83,0a2,2 0 0 1 -2,-1.95l0,-1.81a1,1 0 0 1 2,0l0,1.81l11.83,-0.05l0,-17l-11.83,0l0,1.76a1,1 0 0 1 -2,0l0,-1.76a2,2 0 0 1 2,-2l11.83,0a2,2 0 0 1 2,2zm-13.71,11.24a1,1 0 0 0 1.51,1.31l2.95,-3.39a1,1 0 0 0 0,-1.32l-2.95,-3.39a1,1 0 0 0 -1.51,1.31l1.51,1.74l-7.8,0a1,1 0 0 0 0,2l7.8,0l-1.51,1.74z"/>
  </g>
  <text id="svg_3" font-family="'Helvetica Neue', Helvetica, Arial-Unicode, Arial, Sans-serif" font-weight="bold" font-size="5px" fill="#000000" y="40" x="0">Created by Caesar Rizky Kurniawan</text>
  <text id="svg_4" font-family="'Helvetica Neue', Helvetica, Arial-Unicode, Arial, Sans-serif" font-weight="bold" font-size="5px" fill="#000000" y="45" x="0">from the Noun Project</text>
 </g>
</svg>