<svg width="25.000000000000004" height="25" xmlns="http://www.w3.org/2000/svg">
 <g>
  <title>Layer 1</title>
  <g id="svg_1">
   <path fill="#ffffff" d="m17.83125,19.24l0,1.81c0,1.08 -0.9,1.95 -2,1.95l-11.83,0c-1.1,0 -2,-0.88 -2,-1.95l0,-17.1c0,-1.08 0.9,-1.95 2,-1.95l11.83,0c1.1,0 2,0.88 2,1.95l0,1.81c0,0.55 -0.45,1 -1,1s-1,-0.45 -1,-1l0,-1.81l-11.83,0.05l0,17.05l11.82,-0.05l0,-1.76c0,-0.55 0.45,-1 1,-1s1,0.45 1,1l0.01,0zm4.92,-7.4l-2.96,-3.39c-0.36,-0.42 -0.99,-0.46 -1.41,-0.1c-0.42,0.36 -0.46,0.99 -0.1,1.41l1.51,1.74l-7.8,0c-0.55,0 -1,0.45 -1,1s0.45,1 1,1l7.8,0l-1.51,1.74c-0.36,0.42 -0.32,1.05 0.1,1.41c0.19,0.17 0.42,0.25 0.66,0.25c0.28,0 0.56,-0.12 0.75,-0.34l2.96,-3.39c0.33,-0.38 0.33,-0.94 0,-1.31l0,-0.02z" id="svg_2"/>
  </g>
  <text x="0" y="40" fill="#000000" font-size="5px" font-weight="bold" font-family="'Helvetica Neue', Helvetica, Arial-Unicode, Arial, Sans-serif" id="svg_3">Created by Caesar Rizky Kurniawan</text>
  <text x="0" y="45" fill="#000000" font-size="5px" font-weight="bold" font-family="'Helvetica Neue', Helvetica, Arial-Unicode, Arial, Sans-serif" id="svg_4">from the Noun Project</text>
 </g>

</svg>